<?xml version="1.0" encoding="utf-8"?>
<!-- Generator: Adobe Illustrator 16.0.0, SVG Export Plug-In . SVG Version: 6.00 Build 0)  -->
<!DOCTYPE svg PUBLIC "-//W3C//DTD SVG 1.1//EN" "http://www.w3.org/Graphics/SVG/1.1/DTD/svg11.dtd">
<svg version="1.1" xmlns="http://www.w3.org/2000/svg" xmlns:xlink="http://www.w3.org/1999/xlink" x="0px" y="0px" width="50px"
	 height="200px" viewBox="0 0 50 200" enable-background="new 0 0 50 200" xml:space="preserve">
<g id="Layer_1">
	<circle opacity="0.5" cx="25" cy="25" r="25"/>
	<g opacity="0.5">
		<path d="M25,99C11.767,99,1,88.233,1,75s10.767-24,24-24s24,10.767,24,24S38.233,99,25,99z"/>
		<path fill="#FFFFFF" d="M25,52c12.683,0,23,10.317,23,23S37.683,98,25,98C12.318,98,2,87.683,2,75S12.318,52,25,52 M25,50
			C11.193,50,0,61.192,0,75s11.193,25,25,25c13.808,0,25-11.192,25-25S38.808,50,25,50L25,50z"/>
	</g>
	<circle opacity="0.5" fill="#FFFFFF" cx="25" cy="175" r="25"/>
</g>
<g id="Layer_2">
	<g>
		<path fill="#FFFFFF" d="M25.438,100.005L24.99,100c-12.992,0-23.748,10.572-23.986,23.562c-0.118,6.41,2.27,12.478,6.718,17.095
			c4.452,4.613,10.431,7.224,16.84,7.339L25.011,148h0.004c12.983,0,23.734-10.572,23.981-23.564
			C49.229,111.2,38.663,100.238,25.438,100.005z M25.011,146.272l-0.419-0.005c-5.946-0.107-11.499-2.52-15.626-6.805
			c-4.128-4.279-6.348-9.921-6.237-15.868c0.217-12.058,10.206-21.867,22.266-21.867h0.415
			c12.273,0.218,22.085,10.393,21.863,22.673C47.055,136.463,37.062,146.272,25.011,146.272z"/>
		<path fill="#FFFFFF" d="M36.977,123.607l-11.149-11.574c-0.333-0.341-0.87-0.35-1.219-0.021c-0.336,0.329-0.353,0.875-0.025,1.215
			l9.718,10.076l-20.653-0.373c-0.005,0-0.008,0-0.013,0c-0.472,0-0.857,0.377-0.861,0.842c-0.009,0.479,0.369,0.87,0.845,0.882
			l20.642,0.373l-10.067,9.72c-0.341,0.328-0.35,0.874-0.021,1.219c0.165,0.173,0.395,0.259,0.62,0.259
			c0.219,0,0.432-0.077,0.596-0.242l12.188-11.755l-0.594-0.62C36.977,123.607,36.977,123.607,36.977,123.607z"/>
	</g>
</g>
</svg>
