<?xml version="1.0" encoding="utf-8"?>
<!-- Generator: Adobe Illustrator 16.0.0, SVG Export Plug-In . SVG Version: 6.00 Build 0)  -->
<!DOCTYPE svg PUBLIC "-//W3C//DTD SVG 1.1//EN" "http://www.w3.org/Graphics/SVG/1.1/DTD/svg11.dtd">
<svg version="1.1" xmlns="http://www.w3.org/2000/svg" xmlns:xlink="http://www.w3.org/1999/xlink" x="0px" y="0px" width="80px"
	 height="80px" viewBox="0 0 80 80" enable-background="new 0 0 80 80" xml:space="preserve">
<g id="Layer_1" display="none">
	<circle display="inline" opacity="0.5" cx="40" cy="40" r="40"/>
</g>
<g id="Layer_2">
	<g>
		<path fill="#FFFFFF" d="M40.719,0.007L39.973,0C18.325,0,0.403,17.607,0.007,39.24C-0.191,49.916,3.789,60.021,11.2,67.71
			c7.419,7.683,17.382,12.029,28.062,12.221l0.746,0.007h0.007c21.636,0,39.551-17.606,39.961-39.242
			C80.365,18.653,62.759,0.396,40.719,0.007z M40.008,77.06l-0.698-0.007c-9.908-0.178-19.16-4.196-26.038-11.332
			C6.394,58.593,2.694,49.198,2.878,39.294C3.241,19.213,19.884,2.877,39.98,2.877h0.69C61.123,3.24,77.473,20.184,77.104,40.634
			C76.741,60.724,60.091,77.06,40.008,77.06z"/>
		<path fill="#FFFFFF" d="M59.948,39.315L41.368,20.04c-0.554-0.567-1.449-0.581-2.031-0.034c-0.561,0.547-0.588,1.456-0.041,2.022
			l16.194,16.78l-34.416-0.622c-0.007,0-0.014,0-0.021,0c-0.787,0-1.429,0.629-1.436,1.401c-0.014,0.8,0.615,1.45,1.408,1.47
			l34.396,0.621L38.647,57.867c-0.568,0.547-0.582,1.455-0.035,2.029c0.274,0.288,0.657,0.431,1.033,0.431
			c0.363,0,0.718-0.129,0.992-0.403l20.31-19.577l-0.991-1.032C59.948,39.315,59.948,39.315,59.948,39.315z"/>
	</g>
</g>
</svg>
