<?xml version="1.0" encoding="utf-8"?>
<!-- Generator: Adobe Illustrator 16.0.0, SVG Export Plug-In . SVG Version: 6.00 Build 0)  -->
<!DOCTYPE svg PUBLIC "-//W3C//DTD SVG 1.1//EN" "http://www.w3.org/Graphics/SVG/1.1/DTD/svg11.dtd">
<svg version="1.1" id="Layer_1" xmlns="http://www.w3.org/2000/svg" xmlns:xlink="http://www.w3.org/1999/xlink" x="0px" y="0px"
	 width="2832.468px" height="1396.204px" viewBox="-131.699 106.4 2832.468 1396.204"
	 enable-background="new -131.699 106.4 2832.468 1396.204" xml:space="preserve">
<g id="Layer_1_1_" display="none">
	<path display="inline" d="M1,599.6C1,539.733,19.7,486.434,57.1,439.7c37.4-46.734,84.767-76.767,142.1-90.1
		c16.267-70.934,52.9-129.2,109.898-174.8c57-45.6,122.102-68.4,195.302-68.4c71.6,0,135.467,22.233,191.6,66.7
		c56.133,44.466,92.7,101.5,109.7,171.1h17.1c46.533,0,89.634,11.333,129.3,34c39.667,22.667,71.102,53.565,94.302,92.7
		c23.198,39.133,34.767,82.032,34.698,128.698c0,34.2-6.532,67-19.6,98.4s-30.633,58.566-52.7,81.5
		c-22.065,22.934-48.533,41.5-79.398,55.7c-30.867,14.2-63.167,21.767-96.9,22.7c-6.467,0-9.7-2.935-9.7-8.802v-69.3
		c0-6.2,3.233-9.3,9.7-9.3c44.267-2.267,82.1-20,113.5-53.2s47.133-72.433,47.2-117.7c0-45.532-16.867-84.933-50.602-118.198
		c-33.731-33.268-73.666-49.867-119.8-49.802h-84.5c-5.866,0-8.8-2.898-8.8-8.698l-3.9-30.3
		c-5.865-56.333-30.133-103.467-72.8-141.4c-42.667-37.934-92.133-56.9-148.398-56.9c-57,0-106.567,18.967-148.7,56.9
		c-42.134,37.933-65.8,85.066-71,141.4l-3.9,27.8c0,6.534-3.433,9.8-10.3,9.8l-27.3,1.398c-43.333,5.268-79.733,23.834-109.2,55.7
		c-29.467,31.867-44.2,69.3-44.2,112.3c0,45.269,15.634,84.5,46.9,117.7c31.266,33.2,69.2,50.935,113.8,53.2
		c5.867,0,8.8,3.1,8.8,9.3v69.3c0,5.867-2.933,8.802-8.8,8.802c-69.667-3.269-128.667-29.802-177-79.602S1,668.934,1,599.6L1,599.6z
		 M280.3,947.8c0-3.267,0.467-6.7,1.4-10.3l85-300.3c3.267-10.066,8.866-17.7,16.8-22.9s16-7.833,24.2-7.898
		c3.933,0,8.333,0.5,13.2,1.5c12.398,2.267,21.666,8.633,27.8,19.1c6.133,10.467,7.433,22,3.898,34.6L367.7,960
		c-6.533,22.133-20.867,33.2-43,33.2c-1.602,0-3.4-0.334-5.4-1c-2.934-1-4.866-1.5-5.8-1.5c-11.066-3.268-19.367-9.034-24.9-17.3
		C283.067,965.133,280.3,956.6,280.3,947.8L280.3,947.8z M417,1094.2l126.5-457c2.267-10.067,7.467-17.7,15.6-22.9
		c8.135-5.2,16.768-7.833,25.9-7.898c4.2,0,8.733,0.5,13.6,1.5c11.733,3.267,20.367,10.032,25.9,20.3
		c5.533,10.267,6.667,21.398,3.4,33.398L501,1119.1c-2,8.801-6.967,16.301-14.9,22.5c-7.933,6.2-16.633,9.302-26.1,9.302
		c-5.267,0-9.833-0.834-13.7-2.5c-10.398-2.602-19.366-9.435-26.898-20.5C413.867,1119.1,413.066,1107.866,417,1094.2L417,1094.2z
		 M631.8,949.2c0-3.602,0.5-7.5,1.5-11.7l85-300.3c2.935-10.067,8.2-17.7,15.8-22.9c7.602-5.2,15.667-7.833,24.2-7.898
		c4.533,0,9.268,0.5,14.2,1.5c10.4,2.933,18.267,8.3,23.6,16.1c5.334,7.8,8.033,15.934,8.102,24.4c0,1.666-0.334,4.032-1,7.1
		c-0.667,3.066-1,5.1-1,6.1L717.8,960c-2,10.066-6.967,18.1-14.898,24.1c-7.935,6-16.802,9.033-26.602,9.102l-12.7-2.5
		c-10.467-2.935-18.365-8.467-23.698-16.602C634.566,965.967,631.866,957.666,631.8,949.2L631.8,949.2z"/>
</g>
<g id="Layer_1_copy" display="none">
	<path display="inline" d="M1,599.6C1,539.733,19.7,486.434,57.1,439.7c37.4-46.734,84.767-76.767,142.1-90.1
		c16.267-70.934,52.9-129.2,109.898-174.8c57-45.6,122.102-68.4,195.302-68.4c71.6,0,135.467,22.233,191.6,66.7
		c56.133,44.466,92.7,101.5,109.7,171.1h17.1c46.533,0,89.634,11.333,129.3,34c39.667,22.667,71.102,53.565,94.302,92.7
		c23.198,39.133,34.767,82.032,34.698,128.698c0,34.2-6.532,67-19.6,98.4s-30.633,58.566-52.7,81.5
		c-22.065,22.934-48.533,41.5-79.398,55.7c-30.867,14.2-63.167,21.767-96.9,22.7c-6.467,0-9.7-2.935-9.7-8.802v-69.3
		c0-6.2,3.233-9.3,9.7-9.3c44.267-2.267,82.1-20,113.5-53.2s47.133-72.433,47.2-117.7c0-45.532-16.867-84.933-50.602-118.198
		c-33.731-33.268-73.666-49.867-119.8-49.802h-84.5c-5.866,0-8.8-2.898-8.8-8.698l-3.9-30.3
		c-5.865-56.333-30.133-103.467-72.8-141.4c-42.667-37.934-92.133-56.9-148.398-56.9c-57,0-106.567,18.967-148.7,56.9
		c-42.134,37.933-65.8,85.066-71,141.4l-3.9,27.8c0,6.534-3.433,9.8-10.3,9.8l-27.3,1.398c-43.333,5.268-79.733,23.834-109.2,55.7
		c-29.467,31.867-44.2,69.3-44.2,112.3c0,45.269,15.634,84.5,46.9,117.7c31.266,33.2,69.2,50.935,113.8,53.2
		c5.867,0,8.8,3.1,8.8,9.3v69.3c0,5.867-2.933,8.802-8.8,8.802c-69.667-3.269-128.667-29.802-177-79.602S1,668.934,1,599.6L1,599.6z
		"/>
	<g display="inline">
		<path d="M569.105,540.205c12.252,8.285,23.159,17.912,32.721,28.89c9.551,10.985,17.574,22.865,24.063,35.641
			c6.488,12.782,11.449,26.282,14.875,40.5c3.427,14.226,4.953,28.536,4.599,42.931c-0.726,18.359-4.144,36.271-10.26,53.729
			c-6.125,17.467-14.767,33.573-25.921,48.33c-14.041,18.36-31.143,33.211-51.301,44.551c-20.165,11.34-41.58,18.453-64.259,21.33
			c-23.043,2.877-45.63,1.164-67.77-5.131c-22.141-6.294-42.391-16.283-60.75-29.97v-0.54L364.75,1005.5
			c0,9.357-3.136,18.021-9.667,24.5c-6.531,6.48-15.233,9.374-24.667,9.374s-17.469-2.894-24-9.374
			c-6.531-6.479-8.813-15.143-8.813-24.5V684.385v-3.24c0-2.877,0.084-5.67,0.27-8.369c0.177-2.7,0.447-5.484,0.81-8.37
			c1.435-14.757,4.953-29.067,10.538-42.931c5.586-13.854,12.623-26.729,21.095-38.608c8.472-11.881,18.394-22.588,29.751-32.131
			c11.356-9.534,23.7-17.55,37.049-24.029c27.759-12.961,56.97-18.268,87.615-15.931
			C515.375,513.12,543.506,522.925,569.105,540.205z M577.863,690.864c1.797-25.194-4.496-47.874-18.875-68.04
			c-7.188-10.438-15.912-19.254-26.156-26.459c-10.243-7.197-21.296-12.421-33.159-15.66c-24.452-6.835-48.001-5.215-70.646,4.859
			c2.886-1.435,5.763-2.784,8.647-4.051c2.886-1.257,5.771-2.431,8.657-3.511c-3.604,1.443-7.113,2.888-10.53,4.32
			c-3.426,1.442-6.75,3.062-9.99,4.86c-13.322,5.763-24.84,14.402-34.56,25.92c-12.606,14.766-20.79,31.683-24.57,50.76
			c-3.779,19.086-2.43,37.801,4.051,56.16c5.036,13.686,12.597,25.92,22.68,36.72c10.075,10.801,21.955,19.264,35.64,25.381
			c13.669,5.763,27.877,8.64,42.609,8.64c14.731,0,28.932-3.055,42.592-9.18c5.747-2.878,11.222-5.939,16.436-9.181
			c5.216-3.239,10.159-7.021,14.834-11.34c9.341-9.357,16.884-20.064,22.638-32.131
			C573.906,716.877,577.139,704.188,577.863,690.864z"/>
		<path d="M869.727,519.955c6.295,6.303,9.451,13.955,9.451,22.949c0,9.364-3.334,17.373-9.99,24.029
			c-6.666,6.665-14.674,9.99-24.028,9.99h-2.701c-14.039,0.727-27.271,3.966-39.689,9.72c-12.42,5.764-23.221,13.416-32.399,22.95
			c-9.18,9.543-16.385,20.612-21.601,33.21c-5.223,12.605-7.829,26.105-7.829,40.5V1005.5c0,9.366-4.031,18.02-10.688,24.5
			c-6.666,6.479-14.643,9.374-24,9.374c-9.367,0-17.021-2.896-23.5-9.374c-6.479-6.48-9.312-15.134-9.312-24.5V683.305
			c0-23.76,4.403-45.983,13.229-66.689c8.816-20.696,20.789-38.88,35.91-54.54c15.119-15.66,32.938-28.164,53.459-37.529
			c20.52-9.356,42.475-14.395,65.881-15.12h3.24h0.539h1.08C855.771,510.15,863.424,513.66,869.727,519.955z"/>
	</g>
	<path display="inline" d="M739.823,1075.688c0,18.541-15.031,33.572-33.573,33.572c-18.543,0-33.574-15.031-33.574-33.572
		c0-18.543,32.814-70.198,32.814-70.198S739.823,1057.145,739.823,1075.688z"/>
	<path display="inline" d="M363.99,1075.688c0,18.541-15.031,33.572-33.574,33.572c-18.542,0-33.573-15.031-33.573-33.572
		c0-18.543,32.813-70.198,32.813-70.198S363.99,1057.145,363.99,1075.688z"/>
	<path display="inline" d="M552.286,1005.801c0,18.542-15.031,33.573-33.574,33.573c-18.542,0-33.573-15.031-33.573-33.573
		s32.813-70.197,32.813-70.197S552.286,987.259,552.286,1005.801z"/>
</g>
<g id="Layer_1_copy_2" display="none">
	
		<linearGradient id="SVGID_1_" gradientUnits="userSpaceOnUse" x1="261" y1="636.9541" x2="1341.1001" y2="636.9541" gradientTransform="matrix(1 0 0 -1 -260 1119.1035)">
		<stop  offset="0" style="stop-color:#E2BFD7"/>
		<stop  offset="1" style="stop-color:#C9459F"/>
	</linearGradient>
	<path display="inline" fill="url(#SVGID_1_)" d="M1,599.6C1,539.733,19.7,486.434,57.1,439.7c37.4-46.734,84.767-76.767,142.1-90.1
		c16.267-70.934,52.9-129.2,109.898-174.8c57-45.6,122.102-68.4,195.302-68.4c71.6,0,135.467,22.233,191.6,66.7
		c56.133,44.466,92.7,101.5,109.7,171.1h17.1c46.533,0,89.634,11.333,129.3,34c39.667,22.667,71.102,53.565,94.302,92.7
		c23.198,39.133,34.767,82.032,34.698,128.698c0,34.2-6.532,67-19.6,98.4s-30.633,58.566-52.7,81.5
		c-22.065,22.934-48.533,41.5-79.398,55.7c-30.867,14.2-63.167,21.767-96.9,22.7c-6.467,0-9.7-2.935-9.7-8.802v-69.3
		c0-6.2,3.233-9.3,9.7-9.3c44.267-2.267,82.1-20,113.5-53.2s47.133-72.433,47.2-117.7c0-45.532-16.867-84.933-50.602-118.198
		c-33.731-33.268-73.666-49.867-119.8-49.802h-84.5c-5.866,0-8.8-2.898-8.8-8.698l-3.9-30.3
		c-5.865-56.333-30.133-103.467-72.8-141.4c-42.667-37.934-92.133-56.9-148.398-56.9c-57,0-106.567,18.967-148.7,56.9
		c-42.134,37.933-65.8,85.066-71,141.4l-3.9,27.8c0,6.534-3.433,9.8-10.3,9.8l-27.3,1.398c-43.333,5.268-79.733,23.834-109.2,55.7
		c-29.467,31.867-44.2,69.3-44.2,112.3c0,45.269,15.634,84.5,46.9,117.7c31.266,33.2,69.2,50.935,113.8,53.2
		c5.867,0,8.8,3.1,8.8,9.3v69.3c0,5.867-2.933,8.802-8.8,8.802c-69.667-3.269-128.667-29.802-177-79.602S1,668.934,1,599.6L1,599.6z
		"/>
	<g display="inline">
		<path d="M-760.691,393.317c12.252,8.285,23.16,17.912,32.721,28.89c9.551,10.985,17.574,22.865,24.064,35.64
			c6.488,12.783,11.449,26.283,14.875,40.5c3.426,14.227,4.953,28.536,4.598,42.932c-0.725,18.358-4.143,36.271-10.26,53.729
			c-6.125,17.466-14.766,33.573-25.92,48.33c-14.041,18.36-31.143,33.21-51.301,44.55c-20.165,11.34-41.58,18.453-64.259,21.33
			c-23.043,2.877-45.63,1.164-67.77-5.13s-42.39-16.284-60.75-29.97v-0.54l-0.354,185.035c0,9.356-3.136,18.021-9.667,24.5
			c-6.531,6.479-15.233,9.374-24.667,9.374c-9.434,0-17.469-2.895-24-9.374c-6.531-6.479-8.813-15.144-8.813-24.5V537.497v-3.24
			c0-2.877,0.084-5.67,0.27-8.37c0.177-2.699,0.447-5.483,0.81-8.37c1.434-14.757,4.953-29.066,10.538-42.93
			c5.586-13.854,12.623-26.729,21.094-38.608c8.472-11.882,18.394-22.588,29.751-32.131c11.357-9.534,23.701-17.55,37.049-24.029
			c27.759-12.961,56.97-18.268,87.615-15.931C-814.421,366.232-786.291,376.037-760.691,393.317z M-751.934,543.977
			c1.797-25.193-4.496-47.874-18.875-68.04c-7.188-10.437-15.912-19.254-26.156-26.459c-10.243-7.196-21.296-12.421-33.159-15.659
			c-24.452-6.835-48.001-5.216-70.647,4.858c2.886-1.434,5.763-2.784,8.648-4.05c2.886-1.257,5.771-2.431,8.657-3.511
			c-3.604,1.442-7.113,2.887-10.53,4.319c-3.426,1.443-6.75,3.062-9.99,4.86c-13.323,5.763-24.84,14.403-34.56,25.92
			c-12.606,14.767-20.79,31.684-24.57,50.76c-3.78,19.087-2.43,37.802,4.05,56.16c5.037,13.687,12.597,25.92,22.68,36.72
			c10.075,10.802,21.955,19.265,35.64,25.382c13.669,5.763,27.877,8.64,42.609,8.64c14.731,0,28.932-3.055,42.592-9.18
			c5.747-2.878,11.222-5.94,16.436-9.182c5.215-3.238,10.159-7.02,14.834-11.34c9.34-9.356,16.883-20.063,22.637-32.13
			C-755.891,569.989-752.658,557.3-751.934,543.977z"/>
		<path d="M-460.07,373.067c6.295,6.303,9.451,13.955,9.451,22.949c0,9.365-3.334,17.373-9.99,24.03
			c-6.666,6.665-14.674,9.99-24.029,9.99h-2.701c-14.039,0.726-27.27,3.966-39.689,9.72c-12.42,5.763-23.221,13.416-32.4,22.95
			c-9.18,9.543-16.385,20.612-21.6,33.21c-5.223,12.605-7.83,26.105-7.83,40.5v322.195c0,9.365-4.031,18.02-10.688,24.5
			c-6.666,6.479-14.643,9.374-24,9.374c-9.367,0-17.021-2.896-23.5-9.374c-6.48-6.48-9.312-15.135-9.312-24.5V536.417
			c0-23.76,4.404-45.984,13.23-66.69c8.816-20.695,20.789-38.88,35.91-54.54c15.119-15.66,32.939-28.164,53.459-37.529
			c20.52-9.357,42.475-14.395,65.881-15.12h3.24h0.539h1.08C-474.025,363.263-466.373,366.772-460.07,373.067z"/>
	</g>
	<path display="inline" fill="#377A7C" d="M364.751,1063.308c0,18.542-15.031,33.573-33.573,33.573
		c-18.543,0-33.574-15.031-33.574-33.573s32.814-70.197,32.814-70.197S364.751,1044.766,364.751,1063.308z"/>
	<path display="inline" fill="#377A7C" d="M549.699,1003.572c0,18.542-15.031,33.572-33.574,33.572
		c-18.542,0-33.573-15.03-33.573-33.572s32.813-70.198,32.813-70.198S549.699,985.03,549.699,1003.572z"/>
	<path display="inline" fill="#377A7C" d="M740.021,960.688c0,18.541-15.031,33.572-33.574,33.572
		c-18.542,0-33.573-15.031-33.573-33.572c0-18.543,32.813-70.198,32.813-70.198S740.021,942.145,740.021,960.688z"/>
	
		<linearGradient id="SVGID_2_" gradientUnits="userSpaceOnUse" x1="731.3169" y1="608.5376" x2="731.3169" y2="104.729" gradientTransform="matrix(1 0 0 -1 -260 1119.1035)">
		<stop  offset="0" style="stop-color:#607A96"/>
		<stop  offset="1" style="stop-color:#377A7C"/>
	</linearGradient>
	<path display="inline" fill="url(#SVGID_2_)" d="M568.914,540.531c12.25,8.286,23.16,17.913,32.72,28.891
		c9.552,10.985,17.575,22.865,24.064,35.641c6.487,12.782,11.449,26.282,14.875,40.5c3.426,14.226,4.953,28.535,4.599,42.931
		c-0.726,18.358-4.144,36.271-10.261,53.729c-6.125,17.467-14.766,33.573-25.92,48.33c-14.04,18.36-31.144,33.21-51.3,44.55
		c-20.166,11.341-41.58,18.453-64.261,21.33c-23.043,2.877-45.63,1.164-67.77-5.13s-42.39-16.284-60.75-29.97v-0.54L364.75,980.5
		c0,9.357-3.136,18.021-9.667,24.5c-6.531,6.48-15.233,9.374-24.667,9.374s-17.469-2.894-24-9.374
		c-6.531-6.479-8.813-15.143-8.813-24.5l-0.192-295.788v-3.24c0-2.877,0.084-5.67,0.27-8.37c0.177-2.699,0.447-5.483,0.81-8.369
		c1.434-14.758,4.953-29.067,10.538-42.931c5.586-13.854,12.623-26.729,21.094-38.609c8.472-11.88,18.394-22.587,29.751-32.13
		c11.357-9.534,23.701-17.551,37.049-24.03c27.759-12.96,56.97-18.268,87.615-15.931
		C515.184,513.447,543.314,523.252,568.914,540.531z M577.672,691.191c1.797-25.194-4.498-47.874-18.875-68.04
		c-7.188-10.438-15.913-19.255-26.156-26.46c-10.242-7.197-21.296-12.42-33.158-15.66c-24.452-6.834-48.001-5.214-70.647,4.859
		c2.886-1.435,5.763-2.783,8.648-4.05c2.886-1.257,5.771-2.43,8.656-3.51c-3.603,1.442-7.112,2.886-10.529,4.319
		c-3.427,1.442-6.75,3.062-9.99,4.859c-13.323,5.764-24.84,14.402-34.561,25.92c-12.605,14.767-20.79,31.684-24.569,50.76
		c-3.78,19.087-2.431,37.802,4.05,56.16c5.037,13.687,12.597,25.92,22.68,36.721c10.075,10.801,21.955,19.264,35.641,25.381
		c13.669,5.763,27.877,8.64,42.608,8.64c14.732,0,28.933-3.055,42.592-9.18c5.746-2.878,11.223-5.94,16.438-9.181
		c5.214-3.239,10.159-7.021,14.833-11.341c9.341-9.356,16.884-20.063,22.639-32.13C573.715,717.204,576.945,704.515,577.672,691.191
		z"/>
	
		<linearGradient id="SVGID_3_" gradientUnits="userSpaceOnUse" x1="1036.3091" y1="549.3818" x2="1036.3091" y2="201.6226" gradientTransform="matrix(1 0 0 -1 -260 1119.1035)">
		<stop  offset="0" style="stop-color:#607A96"/>
		<stop  offset="1" style="stop-color:#377A7C"/>
	</linearGradient>
	<path display="inline" fill="url(#SVGID_3_)" d="M869.729,580.25c6.295,6.304,9.449,13.956,9.449,22.95
		c0,9.366-3.333,17.373-9.989,24.03c-6.665,6.666-14.674,9.989-24.029,9.989h-2.7c-14.04,0.727-27.271,3.966-39.689,9.721
		c-12.421,5.763-23.221,13.416-32.399,22.949c-9.181,9.543-16.386,20.612-21.601,33.21c-5.224,12.605-7.83,26.105-7.83,40.5V884
		c0,9.366-3.333,17.28-9.99,23.761c-6.665,6.479-14.672,9.72-24.029,9.72c-9.366,0-17.28-3.239-23.76-9.72
		c-6.48-6.479-9.721-14.395-9.721-23.761V743.601c0-23.76,4.403-45.983,13.229-66.689c8.817-20.697,20.79-38.88,35.91-54.54
		c15.119-15.659,32.938-28.164,53.46-37.529c20.52-9.356,42.474-14.395,65.88-15.12h3.24h0.539h1.08
		C855.771,570.446,863.425,573.956,869.729,580.25z"/>
</g>
<g id="Layer_1_copy_3">
	<g>
		<path fill="#377A7C" d="M1029.378,571.964c26.435-4.458,52.441-2.574,78.022,5.665c25.571,8.24,47.807,21.977,66.691,41.2
			c15.45,15.45,27.376,33.395,35.792,53.817c8.41,20.432,12.441,41.635,12.104,63.603c0,17.51-2.833,34.594-8.498,51.242
			c-5.665,16.657-13.647,32.019-23.947,46.093c-16.826,22.66-38.11,39.913-63.86,51.758c-25.75,11.846-52.529,16.906-80.34,15.192
			c-14.42-1.03-28.502-3.943-42.229-8.755c-13.736-4.805-26.523-11.153-38.368-19.056c-11.845-7.895-22.579-17.163-32.188-27.811
			c-9.615-10.638-17.687-22.482-24.204-35.535c-6.181-12.697-10.734-25.919-13.647-39.653c-2.921-13.729,67.354-4.319,68.045-18.226
			c0.685-13.905,26.049-39.433,30-53c3.943-13.559,3.444-21.978,11-34c2.398-4.458,7.563-12.534,11-17l6-13
			c12.699-17.164-11.202-10.354,7-21C1045.944,602.862,1008.777,575.746,1029.378,571.964z M1140.617,792.899
			c7.211-10.64,12.271-22.146,15.192-34.506c2.912-12.359,3.517-24.89,1.804-37.596c-2.062-12.697-5.844-23.857-11.33-33.475
			c-6.873-12.36-15.797-22.998-26.78-31.931c-10.992-8.925-23.353-15.104-37.08-18.539c-13.39-3.774-11.765,23.585-25.839,25.646
			c-14.082,2.06,3.181,10.452-8.834,18c-15.449,9.962-7.422,27.521-16,44c-8.586,16.479-20.03,18.46-19,37
			c0.684,14.42-27.525,15.641-21,28c1.715,3.091-22.885-2.178-21.34,1.082c1.545,3.267,3.348,6.438,5.408,9.527
			c-3.092-5.15-6.013-10.47-8.756-15.966c5.487,9.962,12.528,18.797,21.114,26.522c8.578,7.725,18.193,13.993,28.84,18.797
			c10.984,4.812,22.482,7.468,34.507,7.982c12.014,0.516,23.688-1.11,35.02-4.894c10.984-3.428,21.115-8.577,30.385-15.449
			C1126.197,810.24,1134.092,802.169,1140.617,792.899z"/>
		<path fill="#377A7C" d="M1416.139,568.874c8.924,0,16.48,3.179,22.66,9.527c6.181,6.356,9.271,13.993,9.271,22.918v133.898
			c0,22.322-4.208,43.35-12.617,63.088c-8.417,19.747-19.828,37.08-34.248,52.016s-31.414,26.869-50.984,35.793
			c-19.569,8.932-40.516,13.735-62.829,14.42h-3.091h-0.516h-1.029c-8.586-0.338-15.885-3.605-21.888-9.785
			c-6.011-6.18-9.013-13.559-9.013-22.146c0-8.924,3.171-16.561,9.526-22.918c6.351-6.349,13.986-9.526,22.918-9.526h2.574
			c13.391-0.338,26.008-3.259,37.854-8.755c11.845-5.488,22.145-12.786,30.898-21.889c8.755-9.093,15.708-19.649,20.858-31.673
			c5.148-12.014,7.725-24.889,7.725-38.625h-0.516V601.319c0-8.925,3.171-16.562,9.527-22.918
			C1399.57,572.053,1407.207,568.874,1416.139,568.874z"/>
		<path fill="#377A7C" d="M1833.798,735.219c-0.348,8.934-3.693,16.48-10.043,22.66c-6.355,6.181-13.994,9.447-22.918,9.785
			h-229.174c1.367,4.12,3.258,8.417,5.664,12.875c1.715,3.437,3.428,6.695,5.148,9.785c1.715,3.09,3.43,6.18,5.15,9.27
			c-1.723-2.743-3.268-5.407-4.635-7.981c-1.377-2.574-2.752-5.23-4.119-7.982c5.486,9.962,12.527,18.887,21.113,26.78
			c8.578,7.901,18.193,14.082,28.84,18.54c11.33,4.812,23.859,7.556,37.596,8.239h2.061c8.924,0,16.393,3.01,22.402,9.014
			c6.002,6.011,9.012,13.479,9.012,22.401c0,8.933-3.01,16.479-9.012,22.66c-6.012,6.181-13.479,9.271-22.402,9.271
			c-2.061,0-4.039,0-5.922,0c-1.893,0-3.693-0.169-5.408-0.516c-14.42-1.029-28.502-3.942-42.229-8.755
			c-13.736-4.805-26.521-11.073-38.369-18.798c-11.844-7.726-22.578-16.906-32.188-27.553
			c-9.615-10.638-17.688-22.482-24.203-35.535c-12.707-25.75-18.461-52.956-17.254-81.627c1.199-28.663,9.352-55.186,24.463-79.567
			c1.367-2.061,2.832-4.2,4.377-6.438c1.545-2.229,3.172-4.378,4.893-6.438c12.699-17.164,28.148-31.157,46.352-41.973
			c18.193-10.815,37.596-18.105,58.193-21.888c26.436-4.12,52.531-2.061,78.281,6.18s47.895,21.977,66.434,41.2
			c15.105,15.45,26.861,32.96,35.277,52.529c8.41,19.569,12.619,40.171,12.619,61.801v1.029V735.219L1833.798,735.219z
			 M1613.892,648.699c-9.961,6.525-18.539,14.509-25.75,23.947c-7.209,9.446-12.705,19.658-16.479,30.643h193.641
			c-1.723-5.149-4.121-10.638-7.211-16.479c-6.525-12.359-15.369-22.918-26.521-31.673c-11.16-8.755-23.609-15.016-37.338-18.798
			c-13.391-3.772-27.125-4.546-41.199-2.316C1638.951,636.259,1625.906,641.151,1613.892,648.699z"/>
		<path fill="#377A7C" d="M2087.175,846.202c6.18,6.355,9.27,13.993,9.27,22.917c0,8.932-3.09,16.479-9.27,22.66
			c-6.182,6.18-13.736,9.27-22.66,9.27h-38.109c-22.66,0-44.033-4.377-64.117-13.132c-20.086-8.755-37.652-20.601-52.684-35.535
			c-15.039-14.936-26.975-32.444-35.793-52.53c-8.826-20.085-13.236-41.625-13.236-64.633c0-22.658,4.41-44.031,13.236-64.117
			c8.818-20.085,20.754-37.595,35.793-52.529c15.031-14.936,32.598-26.779,52.684-35.534c20.084-8.756,41.457-13.133,64.117-13.133
			h38.109c8.924,0,16.479,3.09,22.66,9.27c6.18,6.182,9.27,13.736,9.27,22.66c0,8.933-3.09,16.568-9.27,22.918
			c-6.182,6.356-13.736,9.527-22.66,9.527h-38.109c-14.082,0-27.215,2.663-39.398,7.981c-12.189,5.327-22.916,12.537-32.188,21.63
			c-9.27,9.103-16.568,19.827-21.889,32.188c-5.324,12.36-7.98,25.412-7.98,39.14c0,14.082,2.656,27.296,7.98,39.655
			c5.32,12.36,12.619,23.095,21.889,32.188c9.271,9.103,19.998,16.312,32.188,21.631c12.186,5.326,25.316,7.981,39.398,7.981h38.109
			C2073.437,836.674,2080.994,839.854,2087.175,846.202z"/>
		<path fill="#377A7C" d="M2401.833,578.401c6.18,6.356,9.27,13.993,9.27,22.918c0,8.932-3.09,16.479-9.27,22.659
			s-13.736,9.271-22.66,9.271h-39.654h-42.746v235.354c0,8.933-3.178,16.479-9.525,22.66c-6.357,6.181-13.994,9.271-22.918,9.271
			c-8.934,0-16.48-3.09-22.66-9.271s-9.271-13.729-9.271-22.66V633.249h-39.139H2150c-8.934,0-16.48-3.09-22.66-9.271
			s-9.271-13.729-9.271-22.659c0-8.925,3.092-16.562,9.271-22.918c6.18-6.35,13.729-9.527,22.66-9.527h43.26h146.26h39.654
			C2388.097,568.874,2395.654,572.053,2401.833,578.401z"/>
	</g>
	<path fill="#E2BFD7" d="M1,599.6C1,539.733,19.7,486.434,57.1,439.7c37.4-46.734,84.767-76.767,142.1-90.1
		c16.267-70.934,52.9-129.2,109.898-174.8c57-45.6,122.102-68.4,195.302-68.4c71.6,0,135.467,22.233,191.6,66.7
		c56.133,44.466,92.7,101.5,109.7,171.1h17.1c46.533,0,89.634,11.333,129.3,34c39.667,22.667,71.102,53.565,94.302,92.7
		c23.198,39.133,34.767,82.032,34.698,128.698c0,34.2-6.532,67-19.6,98.4s-30.633,58.566-52.7,81.5
		c-22.065,22.934-48.533,41.5-79.398,55.7c-30.867,14.2-63.167,21.767-96.9,22.7c-6.467,0-9.7-2.935-9.7-8.802v-69.3
		c0-6.2,3.233-9.3,9.7-9.3c44.267-2.267,82.1-20,113.5-53.2s47.133-72.433,47.2-117.7c0-45.532-16.867-84.933-50.602-118.198
		c-33.731-33.268-73.666-49.867-119.8-49.802h-84.5c-5.866,0-8.8-2.898-8.8-8.698l-3.9-30.3
		c-5.865-56.333-30.133-103.467-72.8-141.4c-42.667-37.934-92.133-56.9-148.398-56.9c-57,0-106.567,18.967-148.7,56.9
		c-42.134,37.933-65.8,85.066-71,141.4l-3.9,27.8c0,6.534-3.433,9.8-10.3,9.8l-27.3,1.398c-43.333,5.268-79.733,23.834-109.2,55.7
		c-29.467,31.867-44.2,69.3-44.2,112.3c0,45.269,15.634,84.5,46.9,117.7c31.266,33.2,69.2,50.935,113.8,53.2
		c5.867,0,8.8,3.1,8.8,9.3v69.3c0,5.867-2.933,8.802-8.8,8.802c-69.667-3.269-128.667-29.802-177-79.602S1,668.934,1,599.6L1,599.6z
		"/>
	<g>
		<path d="M-1051.479-1055.399c12.252,8.285,23.16,17.912,32.721,28.89c9.551,10.985,17.574,22.865,24.064,35.64
			c6.488,12.783,11.449,26.283,14.875,40.5c3.426,14.226,4.953,28.536,4.598,42.931c-0.725,18.359-4.144,36.272-10.26,53.729
			c-6.125,17.466-14.766,33.573-25.92,48.33c-14.041,18.36-31.143,33.21-51.301,44.55c-20.165,11.34-41.58,18.453-64.259,21.33
			c-23.043,2.877-45.63,1.164-67.77-5.13s-42.39-16.284-60.75-29.97v-0.54l-0.354,185.035c0,9.357-3.136,18.021-9.667,24.5
			c-6.531,6.48-15.233,9.374-24.667,9.374s-17.469-2.894-24-9.374c-6.531-6.479-8.813-15.143-8.813-24.5V-911.22v-3.24
			c0-2.877,0.084-5.67,0.27-8.37c0.177-2.7,0.447-5.484,0.81-8.37c1.434-14.757,4.953-29.067,10.538-42.93
			c5.586-13.854,12.623-26.73,21.094-38.609c8.472-11.881,18.394-22.588,29.751-32.131c11.357-9.534,23.701-17.55,37.049-24.029
			c27.759-12.961,56.97-18.268,87.615-15.931C-1105.208-1082.484-1077.078-1072.68-1051.479-1055.399z M-1042.721-904.74
			c1.797-25.194-4.496-47.874-18.875-68.04c-7.188-10.437-15.912-19.254-26.156-26.459c-10.243-7.197-21.296-12.421-33.159-15.66
			c-24.452-6.835-48.001-5.215-70.647,4.859c2.886-1.434,5.763-2.784,8.648-4.05c2.886-1.257,5.771-2.431,8.657-3.511
			c-3.603,1.442-7.113,2.887-10.53,4.32c-3.426,1.443-6.75,3.062-9.99,4.86c-13.323,5.763-24.84,14.403-34.56,25.92
			c-12.606,14.766-20.79,31.683-24.57,50.76c-3.78,19.086-2.43,37.801,4.05,56.16c5.037,13.686,12.597,25.92,22.68,36.72
			c10.075,10.801,21.955,19.264,35.64,25.381c13.669,5.763,27.877,8.64,42.609,8.64c14.732,0,28.932-3.055,42.592-9.18
			c5.747-2.878,11.222-5.94,16.436-9.181c5.215-3.239,10.159-7.02,14.834-11.34c9.34-9.357,16.883-20.064,22.637-32.13
			C-1046.678-878.728-1043.445-891.417-1042.721-904.74z"/>
		<path d="M-750.857-1075.649c6.295,6.303,9.451,13.955,9.451,22.949c0,9.365-3.334,17.373-9.99,24.03
			c-6.666,6.665-14.674,9.99-24.029,9.99h-2.701c-14.039,0.726-27.27,3.966-39.689,9.72c-12.42,5.763-23.221,13.416-32.4,22.95
			c-9.18,9.543-16.385,20.612-21.6,33.21c-5.223,12.604-7.83,26.104-7.83,40.5v322.195c0,9.366-4.031,18.02-10.688,24.5
			c-6.666,6.479-14.643,9.374-24,9.374c-9.367,0-17.021-2.895-23.5-9.374c-6.48-6.48-9.312-15.134-9.312-24.5V-912.3
			c0-23.76,4.404-45.984,13.23-66.69c8.816-20.696,20.789-38.88,35.91-54.54c15.119-15.66,32.939-28.164,53.459-37.529
			c20.52-9.357,42.475-14.395,65.881-15.12h3.24h0.539h1.08C-764.812-1085.454-757.16-1081.944-750.857-1075.649z"/>
	</g>
	<path fill="#AADC8E" d="M364.751,1063.308c0,18.542-15.031,33.573-33.573,33.573c-18.543,0-33.574-15.031-33.574-33.573
		s32.814-70.197,32.814-70.197S364.751,1044.766,364.751,1063.308z"/>
	<path fill="#AADC8E" d="M740.021,960.688c0,18.541-15.031,33.572-33.574,33.572c-18.542,0-33.573-15.031-33.573-33.572
		c0-18.543,32.813-70.198,32.813-70.198S740.021,942.145,740.021,960.688z"/>
	
		<linearGradient id="SVGID_4_" gradientUnits="userSpaceOnUse" x1="731.3159" y1="104.73" x2="731.3159" y2="608.5376" gradientTransform="matrix(1 0 0 -1 -260 1119.1035)">
		<stop  offset="0" style="stop-color:#AADC8E"/>
		<stop  offset="1" style="stop-color:#377A7C"/>
	</linearGradient>
	<path fill="url(#SVGID_4_)" d="M568.914,540.531c12.25,8.286,23.16,17.913,32.72,28.891c9.552,10.985,17.575,22.865,24.064,35.641
		c6.487,12.782,11.449,26.282,14.875,40.5c3.426,14.226,4.953,28.535,4.599,42.931c-0.726,18.358-4.144,36.271-10.261,53.729
		c-6.125,17.467-14.766,33.573-25.92,48.33c-14.04,18.36-31.144,33.21-51.3,44.55c-20.166,11.341-41.58,18.453-64.261,21.33
		c-23.043,2.877-45.63,1.164-67.77-5.13s-42.39-16.284-60.75-29.97v-0.54L364.75,980.5c0,9.357-3.136,18.021-9.667,24.5
		c-6.531,6.48-15.233,9.374-24.667,9.374s-17.469-2.894-24-9.374c-6.531-6.479-8.813-15.143-8.813-24.5l-0.192-295.788v-3.24
		c0-2.877,0.084-5.67,0.27-8.37c0.177-2.699,0.447-5.483,0.81-8.369c1.434-14.758,4.953-29.067,10.538-42.931
		c5.586-13.854,12.623-26.729,21.094-38.609c8.472-11.88,18.394-22.587,29.751-32.13c11.357-9.534,23.701-17.551,37.049-24.03
		c27.759-12.96,56.97-18.268,87.615-15.931C515.184,513.447,543.314,523.252,568.914,540.531z M577.672,691.191
		c1.797-25.194-4.498-47.874-18.875-68.04c-7.188-10.438-15.913-19.255-26.156-26.46c-10.242-7.197-21.296-12.42-33.158-15.66
		c-24.452-6.834-48.001-5.214-70.647,4.859c2.886-1.435,5.763-2.783,8.648-4.05c2.886-1.257,5.771-2.43,8.656-3.51
		c-3.603,1.442-7.112,2.886-10.529,4.319c-3.427,1.442-6.75,3.062-9.99,4.859c-13.323,5.764-24.84,14.402-34.561,25.92
		c-12.605,14.767-20.79,31.684-24.569,50.76c-3.78,19.087-2.431,37.802,4.05,56.16c5.037,13.687,12.597,25.92,22.68,36.721
		c10.075,10.801,21.955,19.264,35.641,25.381c13.669,5.763,27.877,8.64,42.608,8.64c14.732,0,28.933-3.055,42.592-9.18
		c5.746-2.878,11.223-5.94,16.438-9.181c5.214-3.239,10.159-7.021,14.833-11.341c9.341-9.356,16.884-20.063,22.639-32.13
		C573.715,717.204,576.945,704.515,577.672,691.191z"/>
	
		<linearGradient id="SVGID_5_" gradientUnits="userSpaceOnUse" x1="1036.3081" y1="201.6235" x2="1036.3081" y2="549.3818" gradientTransform="matrix(1 0 0 -1 -260 1119.1035)">
		<stop  offset="0" style="stop-color:#AADC8E"/>
		<stop  offset="1" style="stop-color:#377A7C"/>
	</linearGradient>
	<path fill="url(#SVGID_5_)" d="M869.729,580.25c6.295,6.304,9.449,13.956,9.449,22.95c0,9.366-3.333,17.373-9.989,24.03
		c-6.665,6.666-14.674,9.989-24.029,9.989h-2.7c-14.04,0.727-27.271,3.966-39.689,9.721c-12.421,5.763-23.221,13.416-32.399,22.949
		c-9.181,9.543-16.386,20.612-21.601,33.21c-5.224,12.605-7.83,26.105-7.83,40.5V884c0,9.366-3.333,17.28-9.99,23.761
		c-6.665,6.479-14.672,9.72-24.029,9.72c-9.366,0-17.28-3.239-23.76-9.72c-6.48-6.479-9.721-14.395-9.721-23.761V743.601
		c0-23.76,4.403-45.983,13.229-66.689c8.817-20.697,20.79-38.88,35.91-54.54c15.119-15.659,32.938-28.164,53.46-37.529
		c20.52-9.356,42.474-14.395,65.88-15.12h3.24h0.539h1.08C855.771,570.446,863.425,573.956,869.729,580.25z"/>
	<g>
		<rect x="-141.485" y="1083.881" fill="none" width="2925.234" height="1008"/>
		<path fill="#377A7C" d="M55.502,1175.287c6.003,6.011,9.013,13.31,9.013,21.887c0,8.934-3.179,16.569-9.527,22.918
			c-6.357,6.357-13.994,9.527-22.917,9.527h-2.575c-13.39,0.691-26.007,3.781-37.853,9.271c-11.845,5.496-22.145,12.794-30.9,21.888
			c-8.755,9.102-15.627,19.658-20.6,31.673c-4.981,12.021-7.467,24.896-7.467,38.625v133.899c0,8.933-3.179,16.479-9.528,22.66
			c-6.357,6.18-13.993,9.271-22.917,9.271c-8.932,0-16.48-3.091-22.66-9.271c-6.18-6.181-9.27-13.729-9.27-22.66v-133.899
			c0-22.66,4.2-43.855,12.617-63.604c8.409-19.739,19.828-37.08,34.248-52.015c14.42-14.937,31.415-26.86,50.985-35.793
			c19.57-8.924,40.508-13.729,62.83-14.42h3.09h0.515h1.03C42.193,1165.938,49.492,1169.284,55.502,1175.287z"/>
		<path fill="#377A7C" d="M254.547,1165.244c22.998,0,44.547,4.378,64.632,13.133s37.596,20.6,52.53,35.535
			s26.78,32.533,35.535,52.787c8.756,20.262,13.133,41.715,13.133,64.375v133.9c0,8.932-3.09,16.479-9.27,22.659
			c-6.181,6.181-13.736,9.271-22.66,9.271c-8.933,0-16.569-3.09-22.917-9.271c-6.357-6.181-9.528-13.729-9.528-22.659v-61.802
			H254.547v-0.515c-1.03,0.346-2.921,0.515-5.665,0.515c-11.33,0-22.145,1.724-32.445,5.15c-10.3,3.437-19.658,8.24-28.067,14.42
			c-8.417,6.18-15.708,13.567-21.888,22.146c-6.18,8.587-10.815,18.024-13.905,28.324c-0.346,0.348-0.515,0.692-0.515,1.03
			c0,0.346-0.177,0.692-0.515,1.03c-2.06,6.525-5.842,11.765-11.33,15.707c-5.496,3.951-11.845,5.923-19.055,5.923
			c-8.932,0-16.48-3.09-22.66-9.271c-6.18-6.181-9.27-13.729-9.27-22.66v-4.636v-129.265c0-20.254,3.428-39.309,10.3-57.165
			c8.24-21.968,20.6-41.538,37.08-58.71c15.45-15.45,33.217-27.633,53.302-36.564C210,1169.71,231.541,1165.244,254.547,1165.244z
			 M356.002,1338.799v-7.725c0-17.849-4.297-34.328-12.875-49.439c0-0.339-0.088-0.596-0.257-0.772
			c-0.177-0.169-0.257-0.427-0.257-0.772c-1.376-2.06-2.752-4.119-4.12-6.18c-1.376-2.061-2.752-3.942-4.12-5.665
			c-9.27-12.015-20.777-21.453-34.505-28.325c-13.736-6.863-28.84-10.3-45.32-10.3s-31.673,3.692-45.578,11.072
			c-13.905,7.388-25.493,17.084-34.763,29.098c-6.526,8.586-11.587,18.025-15.192,28.325s-5.408,21.292-5.408,32.96v38.109
			c13.39-9.607,28.148-17.075,44.29-22.401c16.134-5.319,33.129-7.983,50.985-7.983h5.665L356.002,1338.799L356.002,1338.799z"/>
		<path fill="#377A7C" d="M514.102,1148.765c-8.932,0-16.479-3.146-22.658-9.446c-6.182-6.302-9.271-13.881-9.271-22.74
			c0-8.853,3.09-16.432,9.271-22.732c6.18-6.301,13.728-9.455,22.658-9.455c8.926,0,16.562,3.154,22.918,9.455
			c6.35,6.301,9.527,13.881,9.527,22.732c0,8.859-3.179,16.438-9.527,22.74C530.662,1145.618,523.026,1148.765,514.102,1148.765z
			 M514.102,1187.39c8.926,0,16.562,3.179,22.918,9.527c6.35,6.356,9.527,13.993,9.527,22.917v243.596
			c0,8.933-3.179,16.568-9.527,22.917c-6.356,6.357-13.992,9.527-22.918,9.527c-8.932,0-16.479-3.17-22.658-9.527
			c-6.182-6.349-9.271-13.984-9.271-22.917v-243.596c0-8.924,3.09-16.561,9.271-22.917
			C497.622,1190.567,505.17,1187.39,514.102,1187.39z"/>
		<path fill="#377A7C" d="M906.011,1165.244c8.924,0,16.562,3.179,22.917,9.527c6.351,6.356,9.527,13.993,9.527,22.918v117.42v8.239
			v141.625l-0.516,0.516v2.06v1.546v1.546c-0.346,0.346-0.515,0.859-0.515,1.545c0,0.346-0.089,0.604-0.258,0.771
			c-0.177,0.177-0.258,0.436-0.258,0.772c0,0.346-0.177,0.69-0.516,1.029c0,1.029-0.177,1.723-0.515,2.061
			c0,0.346-0.178,0.692-0.516,1.03c0,0.69-0.347,1.376-1.029,2.06v0.515c-0.347,0.348-0.604,0.692-0.773,1.03
			c-0.177,0.348-0.434,0.692-0.771,1.03v0.515c-0.346,0.348-0.604,0.692-0.772,1.03c-0.177,0.346-0.604,0.692-1.286,1.03v0.515
			l-2.061,2.062l-1.03,1.028l-1.029,1.03c-0.692,0.347-1.546,1.03-2.575,2.061c-0.691,0.347-1.118,0.604-1.287,0.771
			c-0.177,0.179-0.604,0.436-1.287,0.772h-0.516c-0.691,0.691-1.376,1.029-2.061,1.029c-0.347,0-0.516,0.178-0.516,0.517
			c-0.691,0-1.118,0.088-1.287,0.257c-0.177,0.178-0.604,0.258-1.287,0.258l-1.03,0.516c-0.346,0-0.604,0.089-0.771,0.258
			c-0.177,0.177-0.604,0.258-1.288,0.258h-1.029c-0.347,0-0.604,0.088-0.771,0.257c-0.179,0.179-0.604,0.259-1.288,0.259h-1.029
			h-2.061h-0.516h-0.516h-2.061h-1.545c-0.346,0-0.604-0.08-0.771-0.259c-0.177-0.169-0.436-0.257-0.772-0.257h-1.545
			c-0.347-0.338-0.86-0.516-1.545-0.516c-0.347,0-0.604-0.08-0.771-0.257c-0.178-0.169-0.436-0.259-0.772-0.259
			c-0.347,0-0.604-0.08-0.772-0.258c-0.178-0.169-0.435-0.257-0.772-0.257c-0.346,0-0.515-0.081-0.515-0.258
			c0-0.169-0.177-0.259-0.516-0.259l-2.061-1.029l-0.515-0.516c-0.692,0-1.376-0.338-2.062-1.029l-0.515-0.516l-2.061-1.029
			c0-0.339-0.089-0.516-0.258-0.516c-0.177,0-0.258-0.169-0.258-0.515c-0.346,0-0.86-0.338-1.545-1.03l-1.029-1.03l-0.516-0.515
			l-181.795-204.455v32.96v8.24v141.625c0,8.932-3.09,16.479-9.271,22.66c-6.181,6.18-13.735,9.27-22.66,9.27
			c-8.933,0-16.567-3.09-22.918-9.27c-6.355-6.182-9.526-13.729-9.526-22.66V1323.35v-8.239v-117.421v-1.029v-2.061l0.515-0.516
			c0.686-7.895,4.12-14.758,10.301-20.6c6.519-5.834,14.242-8.578,23.176-8.24c8.924,0.346,16.303,3.951,22.145,10.814
			l181.795,203.939v-56.649v-8.24v-117.42c0-8.924,3.091-16.561,9.271-22.918C889.53,1168.423,897.078,1165.244,906.011,1165.244z"
			/>
		<path fill="#377A7C" d="M1310.798,1334.164c0,2.752-0.088,5.408-0.257,7.982c-0.178,2.574-0.436,5.238-0.771,7.981
			c-1.724,14.082-5.166,27.642-10.316,40.687c-5.158,13.052-11.78,25.233-19.859,36.563s-17.534,21.55-28.365,30.644
			c-10.83,9.102-22.611,16.737-35.334,22.918c-26.481,12.358-54.341,17.51-83.566,15.449c-29.227-2.061-56.046-11.33-80.46-27.811
			c-23.385-15.788-41.53-36.309-54.421-61.542c-12.893-25.235-18.999-51.927-18.308-80.083c0.685-17.51,3.942-34.505,9.784-50.984
			c5.834-16.479,14.074-31.753,24.721-45.835c13.391-17.511,29.692-31.673,48.926-42.488c19.224-10.813,39.654-17.59,61.285-20.342
			c21.63-2.744,43.083-1.199,64.375,4.635c21.282,5.843,40.508,15.45,57.68,28.841h0.515v-84.976c0-8.925,3.114-16.479,9.344-22.66
			c6.229-6.181,13.849-9.271,22.845-9.271c8.997,0,16.609,3.09,22.837,9.271c6.229,6.181,9.351,13.735,9.351,22.66v211.149v7.211
			H1310.798z M1221.486,1398.539c12.014-14.074,19.826-30.127,23.432-48.152c3.605-18.024,2.318-35.792-3.862-53.303
			c-4.812-13.39-12.103-25.234-21.888-35.535c-9.784-10.3-21.034-18.193-33.732-23.688c-13.044-5.834-26.675-8.755-40.901-8.755
			c-14.228,0-27.673,2.921-40.354,8.755c-5.488,2.752-10.711,5.665-15.684,8.755s-9.682,6.694-14.139,10.814
			c-8.916,8.933-16.109,19.145-21.59,30.644c-5.487,11.507-8.569,23.777-9.254,36.821c-0.691,11.33,0.426,22.579,3.339,33.732
			c2.913,11.161,7.807,21.372,14.661,30.643c6.856,9.963,15.169,18.459,24.938,25.492c9.77,7.041,20.317,12.104,31.633,15.192
			c10.976,2.752,22.289,3.782,33.949,3.09c11.651-0.685,22.797-3.428,33.427-8.239c-2.752,1.376-5.504,2.663-8.256,3.862
			c-2.752,1.207-5.673,2.317-8.763,3.348c6.518-2.397,13.213-5.149,20.085-8.239
			C1201.57,1417.256,1212.554,1408.839,1221.486,1398.539z"/>
		<path fill="#377A7C" d="M1536.367,1165.244c22.998,0,44.547,4.378,64.631,13.133c20.086,8.755,37.596,20.6,52.531,35.535
			s26.779,32.533,35.533,52.787c8.756,20.262,13.135,41.715,13.135,64.375v133.9c0,8.932-3.09,16.479-9.271,22.659
			c-6.18,6.181-13.734,9.271-22.66,9.271c-8.932,0-16.568-3.09-22.918-9.271c-6.355-6.181-9.525-13.729-9.525-22.659v-61.802
			h-101.455v-0.515c-1.031,0.346-2.922,0.515-5.666,0.515c-11.33,0-22.146,1.724-32.445,5.15
			c-10.299,3.437-19.658,8.24-28.066,14.42c-8.416,6.18-15.707,13.567-21.888,22.146c-6.18,8.587-10.813,18.024-13.904,28.324
			c-0.347,0.348-0.516,0.692-0.516,1.03c0,0.346-0.177,0.692-0.515,1.03c-2.062,6.525-5.843,11.765-11.33,15.707
			c-5.496,3.951-11.845,5.923-19.056,5.923c-8.933,0-16.479-3.09-22.659-9.271c-6.182-6.181-9.271-13.729-9.271-22.66v-4.636
			v-129.265c0-20.254,3.428-39.309,10.3-57.165c8.24-21.968,20.602-41.538,37.08-58.71c15.45-15.45,33.219-27.633,53.302-36.564
			C1491.818,1169.71,1513.361,1165.244,1536.367,1165.244z M1637.822,1338.799v-7.725c0-17.849-4.297-34.328-12.875-49.439
			c0-0.339-0.09-0.596-0.26-0.772c-0.176-0.169-0.258-0.427-0.258-0.772c-1.375-2.06-2.752-4.119-4.119-6.18
			c-1.377-2.061-2.752-3.942-4.119-5.665c-9.271-12.015-20.777-21.453-34.506-28.325c-13.734-6.863-28.84-10.3-45.318-10.3
			c-16.48,0-31.674,3.692-45.578,11.072c-13.904,7.388-25.492,17.084-34.762,29.098c-6.526,8.586-11.589,18.025-15.193,28.325
			s-5.407,21.292-5.407,32.96v38.109c13.392-9.607,28.148-17.075,44.291-22.401c16.133-5.319,33.129-7.983,50.984-7.983h5.666
			L1637.822,1338.799L1637.822,1338.799z"/>
		<path fill="#377A7C" d="M2032.306,1165.244c8.924,0,16.561,3.179,22.916,9.527c6.352,6.356,9.527,13.993,9.527,22.918v117.42
			v8.239v141.625l-0.514,0.516v2.06v1.546v1.546c-0.346,0.346-0.516,0.859-0.516,1.545c0,0.346-0.09,0.604-0.258,0.771
			c-0.178,0.177-0.258,0.436-0.258,0.772c0,0.346-0.178,0.69-0.516,1.029c0,1.029-0.176,1.723-0.514,2.061
			c0,0.346-0.18,0.692-0.518,1.03c0,0.69-0.346,1.376-1.029,2.06v0.515c-0.346,0.348-0.604,0.692-0.771,1.03
			c-0.178,0.348-0.436,0.692-0.773,1.03v0.515c-0.346,0.348-0.604,0.692-0.771,1.03c-0.176,0.346-0.604,0.692-1.287,1.03v0.515
			l-2.061,2.062l-1.029,1.028l-1.029,1.03c-0.693,0.347-1.545,1.03-2.576,2.061c-0.689,0.347-1.117,0.604-1.287,0.771
			c-0.176,0.179-0.604,0.436-1.287,0.772h-0.516c-0.691,0.691-1.375,1.029-2.061,1.029c-0.346,0-0.516,0.178-0.516,0.517
			c-0.691,0-1.117,0.088-1.287,0.257c-0.176,0.178-0.604,0.258-1.287,0.258l-1.029,0.516c-0.346,0-0.604,0.089-0.771,0.258
			c-0.178,0.177-0.604,0.258-1.289,0.258h-1.029c-0.346,0-0.604,0.088-0.771,0.257c-0.178,0.179-0.604,0.259-1.287,0.259h-1.029
			h-2.061h-0.516h-0.516h-2.061h-1.545c-0.346,0-0.604-0.08-0.771-0.259c-0.178-0.169-0.436-0.257-0.773-0.257h-1.545
			c-0.346-0.338-0.859-0.516-1.545-0.516c-0.346,0-0.604-0.08-0.771-0.257c-0.178-0.169-0.436-0.259-0.771-0.259
			c-0.348,0-0.604-0.08-0.773-0.258c-0.178-0.169-0.434-0.257-0.771-0.257c-0.346,0-0.516-0.081-0.516-0.258
			c0-0.169-0.176-0.259-0.516-0.259l-2.061-1.029l-0.514-0.516c-0.693,0-1.377-0.338-2.062-1.029l-0.514-0.516l-2.061-1.029
			c0-0.339-0.09-0.516-0.258-0.516c-0.178,0-0.258-0.169-0.258-0.515c-0.348,0-0.861-0.338-1.545-1.03l-1.029-1.03l-0.518-0.515
			l-181.795-204.455v32.96v8.24v141.625c0,8.932-3.09,16.479-9.27,22.66c-6.182,6.18-13.736,9.27-22.66,9.27
			c-8.932,0-16.568-3.09-22.918-9.27c-6.355-6.182-9.527-13.729-9.527-22.66V1323.35v-8.239v-117.421v-1.029v-2.061l0.516-0.516
			c0.686-7.895,4.121-14.758,10.301-20.6c6.518-5.834,14.242-8.578,23.176-8.24c8.924,0.346,16.303,3.951,22.145,10.814
			l181.795,203.939v-56.649v-8.24v-117.42c0-8.924,3.092-16.561,9.271-22.918
			C2015.826,1168.423,2023.373,1165.244,2032.306,1165.244z"/>
		<path fill="#377A7C" d="M2336.154,1442.572c6.18,6.355,9.27,13.993,9.27,22.917c0,8.932-3.09,16.479-9.27,22.66
			c-6.182,6.18-13.736,9.27-22.66,9.27h-38.111c-22.66,0-44.031-4.377-64.117-13.132c-20.084-8.755-37.65-20.601-52.682-35.535
			c-15.041-14.936-26.975-32.445-35.793-52.53c-8.828-20.085-13.238-41.626-13.238-64.633c0-22.659,4.41-44.032,13.238-64.117
			c8.818-20.085,20.752-37.595,35.793-52.529c15.031-14.936,32.598-26.779,52.682-35.534c20.086-8.756,41.457-13.133,64.117-13.133
			h38.111c8.924,0,16.479,3.09,22.66,9.27c6.18,6.181,9.27,13.736,9.27,22.66c0,8.933-3.09,16.568-9.27,22.918
			c-6.182,6.355-13.736,9.527-22.66,9.527h-38.111c-14.082,0-27.213,2.662-39.396,7.981c-12.189,5.327-22.916,12.537-32.188,21.63
			c-9.27,9.103-16.568,19.827-21.889,32.188c-5.326,12.359-7.982,25.412-7.982,39.14c0,14.082,2.656,27.296,7.982,39.655
			c5.32,12.36,12.619,23.095,21.889,32.188c9.271,9.103,19.996,16.312,32.188,21.63c12.184,5.327,25.314,7.982,39.396,7.982h38.111
			C2322.417,1433.044,2329.972,1436.223,2336.154,1442.572z"/>
		<path fill="#377A7C" d="M2700.767,1331.589c-0.346,8.933-3.691,16.48-10.043,22.66c-6.355,6.181-13.992,9.447-22.916,9.785
			h-229.176c1.367,4.12,3.26,8.417,5.664,12.875c1.715,3.437,3.43,6.694,5.15,9.785c1.715,3.09,3.428,6.18,5.15,9.27
			c-1.723-2.743-3.268-5.407-4.637-7.981c-1.375-2.574-2.752-5.23-4.119-7.982c5.488,9.962,12.529,18.887,21.115,26.78
			c8.578,7.901,18.193,14.082,28.84,18.54c11.33,4.812,23.859,7.556,37.596,8.24h2.061c8.924,0,16.391,3.009,22.402,9.013
			c6.002,6.011,9.012,13.479,9.012,22.401c0,8.933-3.01,16.479-9.012,22.66c-6.012,6.181-13.48,9.271-22.402,9.271
			c-2.061,0-4.039,0-5.922,0c-1.893,0-3.695-0.169-5.408-0.516c-14.42-1.029-28.502-3.942-42.23-8.755
			c-13.734-4.805-26.521-11.072-38.367-18.798s-22.578-16.906-32.188-27.553c-9.615-10.638-17.688-22.482-24.205-35.535
			c-12.705-25.75-18.459-52.956-17.252-81.627c1.199-28.663,9.352-55.187,24.463-79.567c1.367-2.061,2.832-4.201,4.377-6.438
			c1.545-2.229,3.17-4.378,4.893-6.438c12.697-17.163,28.148-31.157,46.35-41.973c18.195-10.815,37.596-18.104,58.195-21.888
			c26.436-4.12,52.531-2.061,78.281,6.18s47.895,21.978,66.434,41.2c15.105,15.45,26.861,32.96,35.277,52.53
			c8.41,19.568,12.619,40.17,12.619,61.8v1.03v1.03H2700.767z M2480.863,1245.069c-9.963,6.525-18.541,14.509-25.75,23.946
			c-7.211,9.447-12.707,19.659-16.48,30.644h193.641c-1.723-5.149-4.121-10.638-7.211-16.479
			c-6.525-12.359-15.369-22.918-26.521-31.673c-11.16-8.755-23.609-15.016-37.338-18.798c-13.389-3.773-27.125-4.546-41.199-2.317
			C2505.919,1232.629,2492.876,1237.521,2480.863,1245.069z"/>
	</g>
	<path fill="#AADC8E" d="M548.699,1115.572c0,18.542-15.031,33.572-33.574,33.572c-18.542,0-33.573-15.03-33.573-33.572
		s32.813-70.198,32.813-70.198S548.699,1097.03,548.699,1115.572z"/>
</g>
<g id="Layer_5" display="none">
</g>
<g id="Layer_4" display="none">
	<g display="inline">
		<rect x="-83.493" y="529.321" fill="#E2BFD7" width="15.512" height="15.512"/>
		<rect x="-83.493" y="547.604" fill="#E2BFD7" width="15.512" height="15.513"/>
		<rect x="-83.493" y="565.885" fill="#E2BFD7" width="15.512" height="15.514"/>
		<rect x="-83.493" y="584.167" fill="#E2BFD7" width="15.512" height="15.512"/>
		<rect x="-83.493" y="602.727" fill="#E2BFD7" width="15.512" height="15.513"/>
		<rect x="-83.493" y="621.008" fill="#E2BFD7" width="15.512" height="15.514"/>
		<rect x="-83.493" y="639.29" fill="#E2BFD7" width="15.512" height="15.512"/>
		<rect x="-65.211" y="529.321" fill="#E2BFD7" width="15.512" height="15.512"/>
		<rect x="-65.211" y="547.604" fill="#E2BFD7" width="15.512" height="15.513"/>
		<rect x="-65.211" y="565.885" fill="#E2BFD7" width="15.512" height="15.514"/>
		<rect x="-65.211" y="584.167" fill="#E2BFD7" width="15.512" height="15.512"/>
		<rect x="-65.211" y="602.727" fill="#E2BFD7" width="15.512" height="15.513"/>
		<rect x="-65.211" y="621.008" fill="#E2BFD7" width="15.512" height="15.514"/>
		<rect x="-65.211" y="639.29" fill="#E2BFD7" width="15.512" height="15.512"/>
		<rect x="-46.929" y="529.321" fill="#E2BFD7" width="15.512" height="15.512"/>
		<rect x="-46.929" y="584.167" fill="#E2BFD7" width="15.512" height="15.512"/>
		<rect x="-28.647" y="529.321" fill="#E2BFD7" width="15.512" height="15.512"/>
		<rect x="-28.647" y="584.167" fill="#E2BFD7" width="15.512" height="15.512"/>
		<rect x="-28.647" y="602.727" fill="#E2BFD7" width="15.512" height="15.513"/>
		<rect x="-10.088" y="529.321" fill="#E2BFD7" width="15.512" height="15.512"/>
		<rect x="-10.088" y="584.167" fill="#E2BFD7" width="15.512" height="15.512"/>
		<rect x="-10.088" y="602.727" fill="#AADC8E" width="15.512" height="15.513"/>
		<rect x="-10.088" y="621.008" fill="#E2BFD7" width="15.512" height="15.514"/>
		<rect x="8.194" y="529.321" fill="#E2BFD7" width="15.512" height="15.512"/>
		<rect x="8.194" y="547.604" fill="#E2BFD7" width="15.512" height="15.513"/>
		<rect x="8.194" y="565.885" fill="#E2BFD7" width="15.512" height="15.514"/>
		<rect x="8.194" y="584.167" fill="#E2BFD7" width="15.512" height="15.512"/>
		<rect x="8.194" y="621.008" fill="#E2BFD7" width="15.512" height="15.514"/>
		<rect x="8.194" y="639.29" fill="#E2BFD7" width="15.512" height="15.512"/>
		<rect x="26.476" y="547.604" fill="#E2BFD7" width="15.512" height="15.513"/>
		<rect x="26.476" y="565.885" fill="#E2BFD7" width="15.512" height="15.514"/>
		<rect x="26.476" y="639.29" fill="#E2BFD7" width="15.512" height="15.512"/>
		<rect x="60.544" y="565.885" fill="#E2BFD7" width="15.512" height="15.514"/>
		<rect x="60.544" y="584.167" fill="#E2BFD7" width="15.512" height="15.512"/>
		<rect x="60.544" y="602.727" fill="#E2BFD7" width="15.512" height="15.513"/>
		<rect x="60.544" y="621.008" fill="#E2BFD7" width="15.512" height="15.514"/>
		<rect x="60.544" y="639.29" fill="#E2BFD7" width="15.512" height="15.512"/>
		<rect x="78.826" y="547.604" fill="#E2BFD7" width="15.512" height="15.513"/>
		<rect x="78.826" y="565.885" fill="#E2BFD7" width="15.512" height="15.514"/>
		<rect x="78.826" y="584.167" fill="#E2BFD7" width="15.512" height="15.512"/>
		<rect x="78.826" y="602.727" fill="#E2BFD7" width="15.512" height="15.513"/>
		<rect x="78.826" y="621.008" fill="#E2BFD7" width="15.512" height="15.514"/>
		<rect x="78.826" y="639.29" fill="#E2BFD7" width="15.512" height="15.512"/>
		<rect x="97.108" y="529.321" fill="#E2BFD7" width="15.512" height="15.512"/>
		<rect x="97.108" y="547.604" fill="#E2BFD7" width="15.512" height="15.513"/>
		<rect x="97.108" y="602.727" fill="#E2BFD7" width="15.512" height="15.513"/>
		<rect x="115.39" y="529.321" fill="#E2BFD7" width="15.512" height="15.512"/>
		<rect x="115.39" y="602.727" fill="#E2BFD7" width="15.512" height="15.513"/>
		<rect x="133.949" y="529.321" fill="#E2BFD7" width="15.512" height="15.512"/>
		<rect x="133.949" y="547.604" fill="#E2BFD7" width="15.512" height="15.513"/>
		<rect x="133.949" y="602.727" fill="#E2BFD7" width="15.512" height="15.513"/>
		<rect x="152.231" y="547.604" fill="#966F8A" width="15.512" height="15.513"/>
		<rect x="152.231" y="565.885" fill="#E2BFD7" width="15.512" height="15.514"/>
		<rect x="152.231" y="584.167" fill="#E2BFD7" width="15.512" height="15.512"/>
		<rect x="152.231" y="602.727" fill="#E2BFD7" width="15.512" height="15.513"/>
		<rect x="152.231" y="621.008" fill="#E2BFD7" width="15.512" height="15.514"/>
		<rect x="152.231" y="639.29" fill="#E2BFD7" width="15.512" height="15.512"/>
		<rect x="170.513" y="565.885" fill="#E2BFD7" width="15.512" height="15.514"/>
		<rect x="170.513" y="584.167" fill="#E2BFD7" width="15.512" height="15.512"/>
		<rect x="170.513" y="602.727" fill="#E2BFD7" width="15.512" height="15.513"/>
		<rect x="170.513" y="621.008" fill="#E2BFD7" width="15.512" height="15.514"/>
		<rect x="170.513" y="639.29" fill="#E2BFD7" width="15.512" height="15.512"/>
		<rect x="204.581" y="529.321" fill="#E2BFD7" width="15.512" height="15.512"/>
		<rect x="204.581" y="639.29" fill="#E2BFD7" width="15.512" height="15.512"/>
		<rect x="222.863" y="529.321" fill="#E2BFD7" width="15.512" height="15.512"/>
		<rect x="222.863" y="639.29" fill="#E2BFD7" width="15.512" height="15.512"/>
		<rect x="241.145" y="529.321" fill="#E2BFD7" width="15.512" height="15.512"/>
		<rect x="241.145" y="547.604" fill="#E2BFD7" width="15.512" height="15.513"/>
		<rect x="241.145" y="565.885" fill="#E2BFD7" width="15.512" height="15.514"/>
		<rect x="241.145" y="584.167" fill="#E2BFD7" width="15.512" height="15.512"/>
		<rect x="241.145" y="602.727" fill="#E2BFD7" width="15.512" height="15.513"/>
		<rect x="241.145" y="621.008" fill="#E2BFD7" width="15.512" height="15.514"/>
		<rect x="241.145" y="639.29" fill="#E2BFD7" width="15.512" height="15.512"/>
		<rect x="259.427" y="529.321" fill="#E2BFD7" width="15.512" height="15.512"/>
		<rect x="259.427" y="547.604" fill="#E2BFD7" width="15.512" height="15.513"/>
		<rect x="259.427" y="565.885" fill="#E2BFD7" width="15.512" height="15.514"/>
		<rect x="259.427" y="584.167" fill="#E2BFD7" width="15.512" height="15.512"/>
		<rect x="259.427" y="602.727" fill="#96896F" width="15.512" height="15.513"/>
		<rect x="259.427" y="621.008" fill="#E2BFD7" width="15.512" height="15.514"/>
		<rect x="259.427" y="639.29" fill="#E2BFD7" width="15.512" height="15.512"/>
		<rect x="277.986" y="529.321" fill="#E2BFD7" width="15.512" height="15.512"/>
		<rect x="277.986" y="639.29" fill="#E2BFD7" width="15.512" height="15.512"/>
		<rect x="296.268" y="529.321" fill="#E2BFD7" width="15.512" height="15.512"/>
		<rect x="296.268" y="639.29" fill="#E2BFD7" width="15.512" height="15.512"/>
		<rect x="348.618" y="529.321" fill="#E2BFD7" width="15.512" height="15.512"/>
		<rect x="348.618" y="547.604" fill="#E2BFD7" width="15.512" height="15.513"/>
		<rect x="348.618" y="565.885" fill="#E2BFD7" width="15.512" height="15.514"/>
		<rect x="348.618" y="584.167" fill="#E2BFD7" width="15.512" height="15.512"/>
		<rect x="348.618" y="602.727" fill="#E2BFD7" width="15.512" height="15.513"/>
		<rect x="348.618" y="621.008" fill="#E2BFD7" width="15.512" height="15.514"/>
		<rect x="348.618" y="639.29" fill="#E2BFD7" width="15.512" height="15.512"/>
		<rect x="366.9" y="529.321" fill="#E2BFD7" width="15.512" height="15.512"/>
		<rect x="366.9" y="547.604" fill="#607A96" width="15.512" height="15.513"/>
		<rect x="366.9" y="565.885" fill="#E2BFD7" width="15.512" height="15.514"/>
		<rect x="366.9" y="584.167" fill="#E2BFD7" width="15.512" height="15.512"/>
		<rect x="366.9" y="602.727" fill="#E2BFD7" width="15.512" height="15.513"/>
		<rect x="366.9" y="621.008" fill="#E2BFD7" width="15.512" height="15.514"/>
		<rect x="366.9" y="639.29" fill="#E2BFD7" width="15.512" height="15.512"/>
		<rect x="385.182" y="547.604" fill="#E2BFD7" width="15.513" height="15.513"/>
		<rect x="385.182" y="565.885" fill="#E2BFD7" width="15.513" height="15.514"/>
		<rect x="403.464" y="565.885" fill="#E2BFD7" width="15.512" height="15.514"/>
		<rect x="403.464" y="584.167" fill="#E2BFD7" width="15.512" height="15.512"/>
		<rect x="422.023" y="584.167" fill="#E2BFD7" width="15.512" height="15.512"/>
		<rect x="422.023" y="602.727" fill="#E2BFD7" width="15.512" height="15.513"/>
		<rect x="440.305" y="529.321" fill="#E2BFD7" width="15.513" height="15.512"/>
		<rect x="440.305" y="547.604" fill="#E2BFD7" width="15.513" height="15.513"/>
		<rect x="440.305" y="565.885" fill="#E2BFD7" width="15.513" height="15.514"/>
		<rect x="440.305" y="584.167" fill="#E2BFD7" width="15.513" height="15.512"/>
		<rect x="440.305" y="602.727" fill="#E2BFD7" width="15.513" height="15.513"/>
		<rect x="440.305" y="621.008" fill="#E2BFD7" width="15.513" height="15.514"/>
		<rect x="440.305" y="639.29" fill="#E2BFD7" width="15.513" height="15.512"/>
		<rect x="458.587" y="529.321" fill="#E2BFD7" width="15.512" height="15.512"/>
		<rect x="458.587" y="547.604" fill="#E2BFD7" width="15.512" height="15.513"/>
		<rect x="458.587" y="565.885" fill="#E2BFD7" width="15.512" height="15.514"/>
		<rect x="458.587" y="584.167" fill="#E2BFD7" width="15.512" height="15.512"/>
		<rect x="458.587" y="602.727" fill="#E2BFD7" width="15.512" height="15.513"/>
		<rect x="458.587" y="621.008" fill="#E2BFD7" width="15.512" height="15.514"/>
		<rect x="458.587" y="639.29" fill="#E2BFD7" width="15.512" height="15.512"/>
		<rect x="492.655" y="529.321" fill="#E2BFD7" width="15.512" height="15.512"/>
		<rect x="492.655" y="547.604" fill="#E2BFD7" width="15.512" height="15.513"/>
		<rect x="492.655" y="565.885" fill="#E2BFD7" width="15.512" height="15.514"/>
		<rect x="492.655" y="584.167" fill="#E2BFD7" width="15.512" height="15.512"/>
		<rect x="492.655" y="602.727" fill="#E2BFD7" width="15.512" height="15.513"/>
		<rect x="492.655" y="621.008" fill="#E2BFD7" width="15.512" height="15.514"/>
		<rect x="492.655" y="639.29" fill="#E2BFD7" width="15.512" height="15.512"/>
		<rect x="510.938" y="529.321" fill="#E2BFD7" width="15.513" height="15.512"/>
		<rect x="510.938" y="547.604" fill="#E2BFD7" width="15.513" height="15.513"/>
		<rect x="510.938" y="565.885" fill="#E2BFD7" width="15.513" height="15.514"/>
		<rect x="510.938" y="584.167" fill="#E2BFD7" width="15.513" height="15.512"/>
		<rect x="510.938" y="602.727" fill="#E2BFD7" width="15.513" height="15.513"/>
		<rect x="510.938" y="621.008" fill="#E2BFD7" width="15.513" height="15.514"/>
		<rect x="510.938" y="639.29" fill="#E2BFD7" width="15.513" height="15.512"/>
		<rect x="529.219" y="529.321" fill="#E2BFD7" width="15.513" height="15.512"/>
		<rect x="529.219" y="639.29" fill="#E2BFD7" width="15.513" height="15.512"/>
		<rect x="547.501" y="529.321" fill="#E2BFD7" width="15.513" height="15.512"/>
		<rect x="547.501" y="639.29" fill="#E2BFD7" width="15.513" height="15.512"/>
		<rect x="566.061" y="529.321" fill="#E2BFD7" width="15.513" height="15.512"/>
		<rect x="566.061" y="639.29" fill="#E2BFD7" width="15.513" height="15.512"/>
		<rect x="584.342" y="529.321" fill="#E2BFD7" width="15.514" height="15.512"/>
		<rect x="584.342" y="547.604" fill="#E2BFD7" width="15.514" height="15.513"/>
		<rect x="584.342" y="565.885" fill="#E2BFD7" width="15.514" height="15.514"/>
		<rect x="584.342" y="584.167" fill="#E2BFD7" width="15.514" height="15.512"/>
		<rect x="584.342" y="602.727" fill="#E2BFD7" width="15.514" height="15.513"/>
		<rect x="584.342" y="621.008" fill="#E2BFD7" width="15.514" height="15.514"/>
		<rect x="584.342" y="639.29" fill="#E2BFD7" width="15.514" height="15.512"/>
		<rect x="602.624" y="547.604" fill="#E2BFD7" width="15.513" height="15.513"/>
		<rect x="602.624" y="565.885" fill="#E2BFD7" width="15.513" height="15.514"/>
		<rect x="602.624" y="584.167" fill="#C9459F" width="15.513" height="15.512"/>
		<rect x="602.624" y="602.727" fill="#E2BFD7" width="15.513" height="15.513"/>
		<rect x="602.624" y="621.008" fill="#E2BFD7" width="15.513" height="15.514"/>
		<rect x="636.692" y="565.885" fill="#E2BFD7" width="15.512" height="15.514"/>
		<rect x="636.692" y="584.167" fill="#E2BFD7" width="15.512" height="15.512"/>
		<rect x="636.692" y="602.727" fill="#E2BFD7" width="15.512" height="15.513"/>
		<rect x="636.692" y="621.008" fill="#E2BFD7" width="15.512" height="15.514"/>
		<rect x="636.692" y="639.29" fill="#E2BFD7" width="15.512" height="15.512"/>
		<rect x="654.975" y="547.604" fill="#E2BFD7" width="15.513" height="15.513"/>
		<rect x="654.975" y="565.885" fill="#E2BFD7" width="15.513" height="15.514"/>
		<rect x="654.975" y="584.167" fill="#E2BFD7" width="15.513" height="15.512"/>
		<rect x="654.975" y="602.727" fill="#E2BFD7" width="15.513" height="15.513"/>
		<rect x="654.975" y="621.008" fill="#E2BFD7" width="15.513" height="15.514"/>
		<rect x="654.975" y="639.29" fill="#E2BFD7" width="15.513" height="15.512"/>
		<rect x="673.257" y="529.321" fill="#E2BFD7" width="15.513" height="15.512"/>
		<rect x="673.257" y="547.604" fill="#7C6E37" width="15.513" height="15.513"/>
		<rect x="673.257" y="602.727" fill="#E2BFD7" width="15.513" height="15.513"/>
		<rect x="691.538" y="529.321" fill="#E2BFD7" width="15.513" height="15.512"/>
		<rect x="691.538" y="602.727" fill="#E2BFD7" width="15.513" height="15.513"/>
		<rect x="710.098" y="529.321" fill="#E2BFD7" width="15.513" height="15.512"/>
		<rect x="710.098" y="547.604" fill="#E2BFD7" width="15.513" height="15.513"/>
		<rect x="710.098" y="602.727" fill="#E2BFD7" width="15.513" height="15.513"/>
		<rect x="728.379" y="547.604" fill="#E2BFD7" width="15.513" height="15.513"/>
		<rect x="728.379" y="565.885" fill="#E2BFD7" width="15.513" height="15.514"/>
		<rect x="728.379" y="584.167" fill="#E2BFD7" width="15.513" height="15.512"/>
		<rect x="728.379" y="602.727" fill="#E2BFD7" width="15.513" height="15.513"/>
		<rect x="728.379" y="621.008" fill="#E2BFD7" width="15.513" height="15.514"/>
		<rect x="728.379" y="639.29" fill="#E2BFD7" width="15.513" height="15.512"/>
		<rect x="746.661" y="565.885" fill="#E2BFD7" width="15.513" height="15.514"/>
		<rect x="746.661" y="584.167" fill="#E2BFD7" width="15.513" height="15.512"/>
		<rect x="746.661" y="602.727" fill="#E2BFD7" width="15.513" height="15.513"/>
		<rect x="746.661" y="621.008" fill="#E2BFD7" width="15.513" height="15.514"/>
		<rect x="746.661" y="639.29" fill="#E2BFD7" width="15.513" height="15.512"/>
		<rect x="780.729" y="529.321" fill="#E2BFD7" width="15.513" height="15.512"/>
		<rect x="780.729" y="547.604" fill="#E2BFD7" width="15.513" height="15.513"/>
		<rect x="780.729" y="565.885" fill="#E2BFD7" width="15.513" height="15.514"/>
		<rect x="780.729" y="584.167" fill="#E2BFD7" width="15.513" height="15.512"/>
		<rect x="780.729" y="602.727" fill="#E2BFD7" width="15.513" height="15.513"/>
		<rect x="780.729" y="621.008" fill="#E2BFD7" width="15.513" height="15.514"/>
		<rect x="780.729" y="639.29" fill="#E2BFD7" width="15.513" height="15.512"/>
		<rect x="799.012" y="529.321" fill="#E2BFD7" width="15.513" height="15.512"/>
		<rect x="799.012" y="547.604" fill="#E2BFD7" width="15.513" height="15.513"/>
		<rect x="799.012" y="565.885" fill="#E2BFD7" width="15.513" height="15.514"/>
		<rect x="799.012" y="584.167" fill="#E2BFD7" width="15.513" height="15.512"/>
		<rect x="799.012" y="602.727" fill="#E2BFD7" width="15.513" height="15.513"/>
		<rect x="799.012" y="621.008" fill="#E2BFD7" width="15.513" height="15.514"/>
		<rect x="799.012" y="639.29" fill="#E2BFD7" width="15.513" height="15.512"/>
		<rect x="817.294" y="547.604" fill="#E2BFD7" width="15.512" height="15.513"/>
		<rect x="817.294" y="565.885" fill="#E2BFD7" width="15.512" height="15.514"/>
		<rect x="835.575" y="565.885" fill="#E2BFD7" width="15.513" height="15.514"/>
		<rect x="835.575" y="584.167" fill="#E2BFD7" width="15.513" height="15.512"/>
		<rect x="854.135" y="584.167" fill="#E2BFD7" width="15.513" height="15.512"/>
		<rect x="854.135" y="602.727" fill="#E2BFD7" width="15.513" height="15.513"/>
		<rect x="872.416" y="529.321" fill="#E2BFD7" width="15.513" height="15.512"/>
		<rect x="872.416" y="547.604" fill="#E2BFD7" width="15.513" height="15.513"/>
		<rect x="872.416" y="565.885" fill="#E2BFD7" width="15.513" height="15.514"/>
		<rect x="872.416" y="584.167" fill="#E2BFD7" width="15.513" height="15.512"/>
		<rect x="872.416" y="602.727" fill="#E2BFD7" width="15.513" height="15.513"/>
		<rect x="872.416" y="621.008" fill="#C9AA31" width="15.513" height="15.514"/>
		<rect x="872.416" y="639.29" fill="#E2BFD7" width="15.513" height="15.512"/>
		<rect x="890.698" y="529.321" fill="#E2BFD7" width="15.513" height="15.512"/>
		<rect x="890.698" y="547.604" fill="#E2BFD7" width="15.513" height="15.513"/>
		<rect x="890.698" y="565.885" fill="#E2BFD7" width="15.513" height="15.514"/>
		<rect x="890.698" y="584.167" fill="#E2BFD7" width="15.513" height="15.512"/>
		<rect x="890.698" y="602.727" fill="#E2BFD7" width="15.513" height="15.513"/>
		<rect x="890.698" y="621.008" fill="#E2BFD7" width="15.513" height="15.514"/>
		<rect x="890.698" y="639.29" fill="#E2BFD7" width="15.513" height="15.512"/>
		<rect x="924.767" y="547.604" fill="#E2BFD7" width="15.513" height="15.513"/>
		<rect x="924.767" y="565.885" fill="#E2BFD7" width="15.513" height="15.514"/>
		<rect x="924.767" y="584.167" fill="#E2BFD7" width="15.513" height="15.512"/>
		<rect x="924.767" y="602.727" fill="#E2BFD7" width="15.513" height="15.513"/>
		<rect x="924.767" y="621.008" fill="#E2BFD7" width="15.513" height="15.514"/>
		<rect x="943.049" y="529.321" fill="#E2BFD7" width="15.512" height="15.512"/>
		<rect x="943.049" y="547.604" fill="#E2BFD7" width="15.512" height="15.513"/>
		<rect x="943.049" y="565.885" fill="#E2BFD7" width="15.512" height="15.514"/>
		<rect x="943.049" y="584.167" fill="#E2BFD7" width="15.512" height="15.512"/>
		<rect x="943.049" y="602.727" fill="#E2BFD7" width="15.512" height="15.513"/>
		<rect x="943.049" y="621.008" fill="#E2BFD7" width="15.512" height="15.514"/>
		<rect x="943.049" y="639.29" fill="#E2BFD7" width="15.512" height="15.512"/>
		<rect x="961.331" y="529.321" fill="#E2BFD7" width="15.512" height="15.512"/>
		<rect x="961.331" y="639.29" fill="#E2BFD7" width="15.512" height="15.512"/>
		<rect x="979.612" y="529.321" fill="#E2BFD7" width="15.513" height="15.512"/>
		<rect x="979.612" y="639.29" fill="#E2BFD7" width="15.513" height="15.512"/>
		<rect x="998.172" y="529.321" fill="#377A7C" width="15.512" height="15.512"/>
		<rect x="998.172" y="639.29" fill="#E2BFD7" width="15.512" height="15.512"/>
		<rect x="1016.453" y="529.321" fill="#E2BFD7" width="15.513" height="15.512"/>
		<rect x="1016.453" y="547.604" fill="#E2BFD7" width="15.513" height="15.513"/>
		<rect x="1016.453" y="621.008" fill="#E2BFD7" width="15.513" height="15.514"/>
		<rect x="1016.453" y="639.29" fill="#E2BFD7" width="15.513" height="15.512"/>
		<rect x="1034.735" y="547.604" fill="#E2BFD7" width="15.513" height="15.513"/>
		<rect x="1034.735" y="621.008" fill="#E2BFD7" width="15.513" height="15.514"/>
		<rect x="1068.804" y="529.321" fill="#E2BFD7" width="15.513" height="15.512"/>
		<rect x="1068.804" y="547.604" fill="#E2BFD7" width="15.513" height="15.513"/>
		<rect x="1068.804" y="565.885" fill="#E2BFD7" width="15.513" height="15.514"/>
		<rect x="1068.804" y="584.167" fill="#E2BFD7" width="15.513" height="15.512"/>
		<rect x="1068.804" y="602.727" fill="#E2BFD7" width="15.513" height="15.513"/>
		<rect x="1068.804" y="621.008" fill="#E2BFD7" width="15.513" height="15.514"/>
		<rect x="1068.804" y="639.29" fill="#E2BFD7" width="15.513" height="15.512"/>
		<rect x="1087.086" y="529.321" fill="#E2BFD7" width="15.512" height="15.512"/>
		<rect x="1087.086" y="547.604" fill="#E2BFD7" width="15.512" height="15.513"/>
		<rect x="1087.086" y="565.885" fill="#E2BFD7" width="15.512" height="15.514"/>
		<rect x="1087.086" y="584.167" fill="#E2BFD7" width="15.512" height="15.512"/>
		<rect x="1087.086" y="602.727" fill="#E2BFD7" width="15.512" height="15.513"/>
		<rect x="1087.086" y="621.008" fill="#E2BFD7" width="15.512" height="15.514"/>
		<rect x="1087.086" y="639.29" fill="#E2BFD7" width="15.512" height="15.512"/>
		<rect x="1105.368" y="529.321" fill="#E2BFD7" width="15.512" height="15.512"/>
		<rect x="1105.368" y="584.167" fill="#E2BFD7" width="15.512" height="15.512"/>
		<rect x="1105.368" y="639.29" fill="#E2BFD7" width="15.512" height="15.512"/>
		<rect x="1123.649" y="529.321" fill="#E2BFD7" width="15.513" height="15.512"/>
		<rect x="1123.649" y="584.167" fill="#31C5C9" width="15.513" height="15.512"/>
		<rect x="1123.649" y="639.29" fill="#E2BFD7" width="15.513" height="15.512"/>
		<rect x="1142.209" y="529.321" fill="#E2BFD7" width="15.512" height="15.512"/>
		<rect x="1142.209" y="584.167" fill="#E2BFD7" width="15.512" height="15.512"/>
		<rect x="1142.209" y="639.29" fill="#E2BFD7" width="15.512" height="15.512"/>
		<rect x="1160.49" y="529.321" fill="#E2BFD7" width="15.513" height="15.512"/>
		<rect x="1160.49" y="584.167" fill="#E2BFD7" width="15.513" height="15.512"/>
		<rect x="1160.49" y="639.29" fill="#E2BFD7" width="15.513" height="15.512"/>
		<rect x="1178.771" y="529.321" fill="#E2BFD7" width="15.514" height="15.512"/>
		<rect x="1178.771" y="639.29" fill="#E2BFD7" width="15.514" height="15.512"/>
	</g>
	<g display="inline">
		<rect x="-83.493" y="398" fill="none" width="1277.244" height="102"/>
		<path fill="#31C5C9" d="M416.164,423.511c0,2.962-0.448,5.812-1.343,8.545c-0.896,2.734-2.368,5.151-4.419,7.251
			c-2.052,2.101-4.762,3.776-8.13,5.029c-3.369,1.253-7.528,1.88-12.477,1.88h-7.324V474h-9.082v-71.387h17.677
			c4.36,0,8.12,0.464,11.278,1.392c3.157,0.928,5.763,2.279,7.812,4.053c2.051,1.774,3.563,3.963,4.541,6.567
			S416.164,420.191,416.164,423.511z M382.473,438.501h6.3c3.026,0,5.672-0.26,7.935-0.781c2.262-0.521,4.134-1.358,5.615-2.515
			c1.479-1.155,2.596-2.653,3.345-4.492c0.748-1.839,1.123-4.077,1.123-6.714c0-4.622-1.335-8.048-4.004-10.278
			c-2.67-2.229-6.836-3.345-12.5-3.345h-7.812L382.473,438.501L382.473,438.501z"/>
		<path fill="#31C5C9" d="M440.09,444.507V474h-9.082v-71.387h17.383c8.658,0,15.056,1.677,19.189,5.029
			c4.134,3.353,6.201,8.431,6.201,15.234c0,2.832-0.399,5.306-1.196,7.422c-0.798,2.116-1.855,3.931-3.174,5.444
			c-1.319,1.513-2.824,2.774-4.518,3.784c-1.692,1.009-3.435,1.839-5.225,2.489L479.104,474H468.41l-17.139-29.492L440.09,444.507
			L440.09,444.507z M440.09,436.792h8.008c2.931,0,5.42-0.285,7.472-0.854c2.051-0.568,3.734-1.415,5.054-2.538
			s2.278-2.522,2.881-4.199c0.603-1.676,0.903-3.639,0.903-5.884c0-2.344-0.334-4.33-1.001-5.958
			c-0.668-1.627-1.678-2.962-3.027-4.004c-1.352-1.042-3.061-1.798-5.127-2.271c-2.067-0.472-4.517-0.708-7.349-0.708h-7.812
			L440.09,436.792L440.09,436.792z"/>
		<path fill="#31C5C9" d="M548.293,438.208c0,5.501-0.659,10.515-1.978,15.039c-1.318,4.525-3.28,8.397-5.885,11.621
			c-2.604,3.223-5.835,5.713-9.691,7.471c-3.857,1.758-8.311,2.637-13.354,2.637c-5.307,0-9.903-0.879-13.794-2.637
			s-7.113-4.248-9.668-7.471c-2.556-3.224-4.452-7.104-5.688-11.646c-1.237-4.541-1.855-9.578-1.855-15.111
			c0-5.534,0.618-10.556,1.855-15.063c1.235-4.508,3.141-8.357,5.713-11.548c2.571-3.19,5.811-5.656,9.717-7.397
			c3.906-1.741,8.512-2.612,13.818-2.612c5.045,0,9.479,0.871,13.306,2.612c3.824,1.742,7.039,4.216,9.644,7.422
			c2.604,3.207,4.565,7.064,5.885,11.572C547.634,427.605,548.293,432.642,548.293,438.208z M495.998,438.208
			c0,4.46,0.423,8.472,1.27,12.036c0.847,3.563,2.141,6.592,3.883,9.082c1.74,2.49,3.954,4.395,6.641,5.713
			c2.686,1.318,5.884,1.978,9.595,1.978s6.909-0.658,9.595-1.978c2.687-1.319,4.898-3.223,6.642-5.713
			c1.741-2.49,3.019-5.519,3.833-9.082c0.812-3.564,1.221-7.576,1.221-12.036c0-4.492-0.407-8.512-1.221-12.061
			c-0.814-3.549-2.084-6.551-3.81-9.009s-3.923-4.346-6.592-5.664c-2.67-1.318-5.858-1.978-9.569-1.978
			c-3.712,0-6.919,0.659-9.619,1.978c-2.702,1.318-4.933,3.207-6.689,5.664c-1.758,2.458-3.061,5.46-3.906,9.009
			C496.421,429.696,495.998,433.716,495.998,438.208z"/>
		<path fill="#31C5C9" d="M553.078,492.994c-1.66,0-3.108-0.106-4.346-0.317c-1.236-0.212-2.312-0.497-3.224-0.854v-7.812
			c1.107,0.293,2.295,0.529,3.564,0.708c1.27,0.18,2.637,0.27,4.102,0.27c1.205,0,2.417-0.155,3.638-0.464
			c1.222-0.311,2.327-0.871,3.32-1.686c0.992-0.813,1.798-1.937,2.417-3.369c0.618-1.433,0.928-3.255,0.928-5.469v-71.387h9.132
			v70.41c0,3.418-0.48,6.38-1.44,8.887c-0.961,2.506-2.295,4.582-4.004,6.226c-1.709,1.645-3.76,2.864-6.152,3.662
			C558.62,492.595,555.975,492.994,553.078,492.994z"/>
		<path fill="#31C5C9" d="M628.371,474H591.31v-71.387h37.062v8.008h-27.979v22.07h26.123v7.909h-26.123v25.392h27.979V474z"/>
		<path fill="#31C5C9" d="M673.098,409.595c-3.482,0-6.641,0.659-9.473,1.978c-2.832,1.319-5.249,3.215-7.251,5.688
			c-2.002,2.474-3.549,5.485-4.639,9.033c-1.091,3.548-1.637,7.552-1.637,12.012c0,4.59,0.479,8.667,1.44,12.231
			c0.96,3.563,2.4,6.566,4.321,9.009c1.92,2.441,4.312,4.297,7.178,5.566c2.864,1.27,6.217,1.903,10.059,1.903
			c2.896,0,5.647-0.285,8.252-0.854c2.604-0.569,5.177-1.229,7.716-1.979v7.91c-1.271,0.488-2.539,0.92-3.81,1.294
			c-1.27,0.375-2.597,0.675-3.979,0.903c-1.384,0.228-2.865,0.398-4.443,0.513c-1.579,0.114-3.329,0.171-5.249,0.171
			c-5.339,0-9.961-0.879-13.867-2.637s-7.138-4.248-9.691-7.471c-2.557-3.224-4.452-7.097-5.688-11.621
			c-1.237-4.524-1.854-9.538-1.854-15.039c0-5.403,0.708-10.352,2.124-14.844s3.499-8.35,6.25-11.572
			c2.75-3.223,6.159-5.729,10.229-7.52c4.068-1.79,8.74-2.686,14.014-2.686c3.517,0,6.868,0.358,10.06,1.074
			c3.188,0.716,6.07,1.758,8.643,3.125l-3.809,7.617c-2.051-1.042-4.281-1.937-6.689-2.686
			C678.892,409.97,676.157,409.595,673.098,409.595z"/>
		<path fill="#31C5C9" d="M725.197,474h-9.131v-63.379h-20.41v-8.008h49.901v8.008h-20.36V474z"/>
	</g>
</g>
</svg>
